HIERARCHY
ROOT Hips
{
	OFFSET 0.000000 0.000000 0.000000
	CHANNELS 6 Xposition Yposition Zposition Xrotation Yrotation Zrotation
	JOINT LeftUpLeg_virtual
	{
		OFFSET 0.000000 0.000000 0.000000
		CHANNELS 3 Xrotation Yrotation Zrotation
		JOINT LeftUpLeg
		{
			OFFSET 10.205400 -3.823500 0.155100
			CHANNELS 3 Xrotation Yrotation Zrotation
			JOINT LeftLeg
			{
				OFFSET 0.708757 -12.982077 0.567790
				CHANNELS 3 Xrotation Yrotation Zrotation
				JOINT LeftFoot
				{
					OFFSET -0.708756 -10.717838 -2.184338
					CHANNELS 3 Xrotation Yrotation Zrotation
					JOINT LeftToeBase
					{
						OFFSET 0.108149 -7.191104 7.560241
						CHANNELS 3 Xrotation Yrotation Zrotation
						JOINT LeftToe_End
						{
							OFFSET 0.070230 0.081724 4.490308
							CHANNELS 3 Xrotation Yrotation Zrotation
							End Site
							{
								OFFSET 0 0 0
							}
						}
					}
				}
			}
		}
	}
	JOINT RightUpLeg_virtual
	{
		OFFSET 0.000000 0.000000 0.000000
		CHANNELS 3 Xrotation Yrotation Zrotation
		JOINT RightUpLeg
		{
			OFFSET -10.205400 -3.823500 0.005500
			CHANNELS 3 Xrotation Yrotation Zrotation
			JOINT RightLeg
			{
				OFFSET -0.708756 -12.982134 0.610632
				CHANNELS 3 Xrotation Yrotation Zrotation
				JOINT RightFoot
				{
					OFFSET 0.708754 -10.717769 -1.945823
					CHANNELS 3 Xrotation Yrotation Zrotation
					JOINT RightToeBase
					{
						OFFSET -0.108140 -7.191069 7.372968
						CHANNELS 3 Xrotation Yrotation Zrotation
						JOINT RightToe_End
						{
							OFFSET -0.070227 0.081735 4.479403
							CHANNELS 3 Xrotation Yrotation Zrotation
							End Site
							{
								OFFSET 0 0 0
							}
						}
					}
				}
			}
		}
	}
	JOINT Spine_virtual
	{
		OFFSET 0.000000 0.000000 0.000000
		CHANNELS 3 Xrotation Yrotation Zrotation
		JOINT Spine
		{
			OFFSET 0.000000 6.876099 0.125700
			CHANNELS 3 Xrotation Yrotation Zrotation
			JOINT Spine1
			{
				OFFSET 0.000000 5.730043 0.104720
				CHANNELS 3 Xrotation Yrotation Zrotation
				JOINT Spine1_split
				{
					OFFSET 0.000000 5.730043 0.104720
					CHANNELS 3 Xrotation Yrotation Zrotation
					JOINT Spine2
					{
						OFFSET 0.000000 5.730043 0.104720
						CHANNELS 3 Xrotation Yrotation Zrotation
						JOINT Neck_virtual
						{
							OFFSET 0.000000 0.000000 0.000000
							CHANNELS 3 Xrotation Yrotation Zrotation
							JOINT Neck
							{
								OFFSET 0.000000 10.314075 0.188496
								CHANNELS 3 Xrotation Yrotation Zrotation
								JOINT Head
								{
									OFFSET 0.000000 7.643700 -2.377400
									CHANNELS 3 Xrotation Yrotation Zrotation
									JOINT HeadTop_End
									{
										OFFSET 0.000000 43.788605 -13.619600
										CHANNELS 3 Xrotation Yrotation Zrotation
										End Site
										{
											OFFSET 0 0 0
										}
									}
								}
							}
						}
						JOINT LeftShoulder_virtual
						{
							OFFSET 0.000000 0.000000 0.000000
							CHANNELS 3 Xrotation Yrotation Zrotation
							JOINT LeftShoulder
							{
								OFFSET 2.196100 4.412489 0.087492
								CHANNELS 3 Xrotation Yrotation Zrotation
								JOINT LeftShoulder_split
								{
									OFFSET 2.196100 4.412489 0.087492
									CHANNELS 3 Xrotation Yrotation Zrotation
									JOINT LeftArm
									{
										OFFSET 8.771219 -2.981674 -0.026999
										CHANNELS 3 Xrotation Yrotation Zrotation
										JOINT LeftForeArm
										{
											OFFSET 8.512804 0.000000 -0.000000
											CHANNELS 3 Xrotation Yrotation Zrotation
											JOINT LeftHand
											{
												OFFSET 18.484802 0.000000 -0.000000
												CHANNELS 3 Xrotation Yrotation Zrotation
												End Site
												{
													OFFSET 0 0 0
												}
											}
										}
									}
								}
							}
						}
						JOINT RightShoulder_virtual
						{
							OFFSET 0.000000 0.000000 0.000000
							CHANNELS 3 Xrotation Yrotation Zrotation
							JOINT RightShoulder
							{
								OFFSET -2.196100 4.412496 0.070690
								CHANNELS 3 Xrotation Yrotation Zrotation
								JOINT RightShoulder_split
								{
									OFFSET -2.196100 4.412496 0.070690
									CHANNELS 3 Xrotation Yrotation Zrotation
									JOINT RightArm
									{
										OFFSET -8.771282 -2.981682 -0.094208
										CHANNELS 3 Xrotation Yrotation Zrotation
										JOINT RightForeArm
										{
											OFFSET -8.494598 0.000000 0.000000
											CHANNELS 3 Xrotation Yrotation Zrotation
											JOINT RightHand
											{
												OFFSET -18.483803 0.000000 0.000001
												CHANNELS 3 Xrotation Yrotation Zrotation
												End Site
												{
													OFFSET 0 0 0
												}
											}
										}
									}
								}
							}
						}
					}
				}
			}
		}
	}
}
MOTION
Frames: 8
Frame Time: 0.03333333
-3.237116 23.332977 -2.933279 0.000000 0.000000 0.000000 -2.594171 11.893098 3.934360 -75.596192 1.653626 3.851621 67.105611 -4.309579 -5.515951 16.122463 -9.329853 2.430609 0.406997 2.225152 -0.653818 0.000000 0.000000 0.000000 -2.406915 13.758807 3.806543 15.579607 -4.479228 -10.925133 85.932686 9.949645 -5.630890 -64.404313 -25.816109 20.608793 -22.871686 14.095658 -21.751243 0.000000 0.000000 0.000000 -3.248284 15.809453 1.584846 12.834236 2.551926 -2.891046 8.397648 -4.618028 -0.345383 0.165448 -0.681335 0.160727 0.000000 0.000000 0.000000 8.573904 -1.132067 -0.325316 -21.334463 9.673232 2.882999 -9.487906 -32.494666 -2.651436 0.000000 0.000000 0.000000 7.960524 -2.749715 -1.945264 -5.026092 -36.836815 -11.759836 -7.849451 2.483224 0.755037 -20.012494 -12.578527 -38.045110 -131.850504 -58.762201 -118.841521 0.000000 0.000000 0.000000 10.145414 -1.723848 -0.483188 -11.839766 22.707304 9.793608 4.993251 2.751846 4.682257 -44.851212 11.960109 57.665341 -158.866389 67.245719 156.180881 0.000000 0.000000 0.000000 
-3.440992 24.829105 -2.739254 0.000000 0.000000 0.000000 -0.417150 14.472433 3.864080 -70.633787 1.773278 2.827106 57.597018 -5.229472 -4.097554 16.754756 -10.667114 0.041177 1.656025 1.916998 0.163696 0.000000 0.000000 0.000000 -0.283897 15.861741 3.776624 16.292663 -6.066586 -9.076404 76.166568 8.862130 -4.336193 -62.554889 -25.530448 18.564184 -19.559498 12.456583 -21.052328 0.000000 0.000000 0.000000 -0.891040 17.935785 1.888374 12.529514 0.949624 -3.487451 6.631890 -3.927105 -2.074190 0.037297 -0.547524 0.227605 0.000000 0.000000 0.000000 7.077226 -0.488287 -1.821567 -24.845814 9.644728 6.254421 -19.953891 -33.505660 -2.560859 0.000000 0.000000 0.000000 6.002066 -1.779148 -2.990140 -3.546030 -31.136746 -7.482027 -7.552422 -0.064522 1.020393 -15.910656 -10.537146 -31.766103 -160.033614 -57.823944 -151.676768 0.000000 0.000000 0.000000 8.113012 -1.407083 -2.054533 -11.227050 18.778692 7.878264 6.384102 1.609642 4.072807 -34.595953 20.004521 49.917058 -163.870609 58.773429 162.350810 0.000000 0.000000 0.000000 
-3.697888 26.682663 -2.337276 0.000000 0.000000 0.000000 2.221421 16.413436 3.228279 -64.728282 1.216929 2.308873 46.180408 -5.746844 -3.216930 17.428223 -11.024944 -2.598147 4.105695 1.626811 0.416500 0.000000 0.000000 0.000000 2.177940 17.124227 3.290183 17.248519 -6.733106 -6.943612 62.586266 7.845064 -3.149382 -58.244978 -24.683190 16.754377 -16.313289 10.648332 -19.311950 0.000000 0.000000 0.000000 2.419537 19.716734 1.480968 11.693810 -0.416788 -3.499443 4.548791 -2.986816 -3.766038 -0.172076 -0.473491 0.205901 0.000000 0.000000 0.000000 5.342319 0.267895 -3.262147 -28.422558 8.925001 9.248051 -31.887343 -33.895401 -3.450818 0.000000 0.000000 0.000000 3.840188 -0.748973 -4.018041 -2.420677 -24.600769 -2.960233 -7.370245 -0.883941 1.479545 -13.327600 -5.799302 -25.399341 178.566690 -58.612599 -177.901115 0.000000 0.000000 0.000000 6.011143 -0.897125 -3.606483 -10.645285 14.810031 6.343824 7.844023 1.009104 3.126409 -23.118071 20.878406 37.990711 -163.280248 57.194829 162.654248 0.000000 0.000000 0.000000 
-3.953638 28.628994 -1.869844 0.000000 0.000000 0.000000 5.002161 17.359254 1.930914 -58.271609 0.483484 2.672587 34.724043 -5.634428 -2.836488 17.226905 -10.140607 -5.134885 7.011563 1.403457 0.152926 0.000000 0.000000 0.000000 4.650074 17.170375 2.259595 18.251116 -6.748361 -4.752674 46.533211 7.012364 -2.045403 -51.751599 -23.060177 14.914230 -14.093428 9.009510 -16.978957 0.000000 0.000000 0.000000 6.263409 20.735165 0.184398 10.738493 -1.516014 -2.785029 2.510182 -1.962127 -5.149289 -0.201959 -0.350027 0.100097 0.000000 0.000000 0.000000 3.579527 1.023622 -4.404734 -31.948517 7.789585 11.607156 -44.111155 -33.131113 -5.108263 0.000000 0.000000 0.000000 1.984306 0.101670 -4.959392 -1.822255 -17.690952 1.110342 -7.127111 0.104035 1.610186 -11.718656 0.991066 -19.393069 150.046251 -63.590263 148.590724 0.000000 0.000000 0.000000 4.236992 -0.243168 -4.868135 -10.086988 10.967921 5.459677 8.431666 0.518387 2.243915 -13.693158 14.655783 26.173640 -155.305197 65.394410 155.071659 0.000000 0.000000 0.000000 
-4.136379 30.332281 -1.373850 0.000000 0.000000 0.000000 7.255371 17.250076 0.239895 -51.827117 0.325012 4.009405 25.249334 -4.932133 -2.815004 15.144263 -8.216053 -7.224603 8.695926 1.279200 -0.005065 0.000000 0.000000 0.000000 6.454023 16.246997 0.741503 18.767190 -6.764468 -3.048476 31.781840 6.696812 -1.012366 -42.777369 -20.890139 13.950707 -13.975845 7.778336 -14.716633 0.000000 0.000000 0.000000 9.724255 21.061874 -1.664521 10.112794 -2.316436 -1.397190 0.884741 -1.000650 -6.063858 -0.106550 -0.303522 -0.007715 0.000000 0.000000 0.000000 2.074142 1.662599 -5.120699 -35.141583 6.414699 13.358840 -55.129182 -30.944623 -6.756482 0.000000 0.000000 0.000000 0.763461 0.762144 -5.657234 -1.725041 -10.815266 4.690605 -6.992144 1.497054 2.410370 -10.066094 9.346546 -14.489936 102.062260 -62.133780 95.186302 0.000000 0.000000 0.000000 3.048561 0.481322 -5.684151 -9.575736 7.251734 5.013802 6.885771 -0.222643 2.632036 -7.702840 4.252394 17.197341 -96.685945 79.157535 96.274419 0.000000 0.000000 0.000000 
-4.218143 31.548002 -0.941755 0.000000 0.000000 0.000000 8.372142 16.361126 -1.507568 -46.435287 0.906491 5.961660 19.840311 -4.192067 -2.886715 11.699672 -5.990583 -8.933910 8.331894 1.270932 0.182419 0.000000 0.000000 0.000000 7.272855 14.685289 -0.950248 18.487280 -7.138988 -2.252360 21.553480 7.247312 0.094798 -31.465018 -18.321713 14.758241 -16.321760 6.909680 -13.172944 0.000000 0.000000 0.000000 11.784774 21.012623 -3.579862 10.102908 -2.871489 0.375507 -0.122044 -0.157328 -6.472385 0.037643 -0.271516 -0.035434 0.000000 0.000000 0.000000 1.199947 2.173154 -5.416907 -37.693683 4.864290 14.642626 -63.978402 -28.100187 -7.720357 0.000000 0.000000 0.000000 0.417400 1.209267 -5.978897 -2.115226 -4.008035 8.334019 -6.068344 2.278596 3.112249 -8.621656 17.196407 -11.491818 71.730913 -45.915148 59.053939 0.000000 0.000000 0.000000 2.562088 1.144540 -6.027957 -9.137063 3.559732 4.607592 3.752530 -0.702649 3.673515 -3.911914 -6.219892 11.570614 -21.067672 61.162220 20.105833 0.000000 0.000000 0.000000 
-4.175500 32.186424 -0.619917 0.000000 0.000000 0.000000 8.164031 15.155684 -2.930067 -42.907320 1.890315 8.016789 19.378141 -4.116808 -3.052464 8.126406 -4.342269 -10.532462 7.096409 1.328429 0.715702 0.000000 0.000000 0.000000 7.009847 13.207326 -2.550529 17.619525 -8.099886 -2.599719 16.833064 8.816436 1.332108 -19.790992 -15.301844 17.410789 -20.697386 6.257872 -12.687026 0.000000 0.000000 0.000000 11.989582 20.737352 -5.066175 10.671208 -3.260781 1.979237 -0.470946 0.537427 -6.451593 0.290185 -0.172396 -0.052502 0.000000 0.000000 0.000000 1.258614 2.620605 -5.401640 -39.143452 3.270452 15.853033 -70.232144 -25.073037 -7.686852 0.000000 0.000000 0.000000 0.804729 1.614323 -5.858874 -3.107521 2.622925 12.076382 -5.178503 2.458107 3.253515 -7.552397 22.593436 -10.803689 62.607734 -28.713330 44.173108 0.000000 0.000000 0.000000 2.688692 1.646747 -6.027244 -8.771643 -0.547898 3.693662 0.074258 -0.843137 5.053922 -0.679273 -14.104434 8.719003 -9.879290 37.509941 8.395100 0.000000 0.000000 0.000000 
-4.048475 32.317074 -0.431639 0.000000 0.000000 0.000000 6.873621 14.371691 -3.792947 -41.401325 2.810617 9.590196 22.745780 -4.703940 -3.315726 5.098168 -3.685836 -11.784260 6.348600 1.400963 1.570713 0.000000 0.000000 0.000000 5.924994 12.675333 -3.709805 16.961393 -9.464899 -3.739050 16.267182 11.093588 2.373000 -11.328010 -12.237074 20.252469 -24.966983 5.781112 -13.223793 0.000000 0.000000 0.000000 10.409275 20.702201 -5.812438 11.514010 -3.503288 2.972765 -0.270249 1.159849 -6.113093 0.360711 -0.048083 -0.034133 0.000000 0.000000 0.000000 2.229212 3.060802 -5.247067 -39.212714 1.626362 17.198749 -73.962732 -22.671396 -6.842048 0.000000 0.000000 0.000000 1.731713 2.066393 -5.334344 -4.646874 8.441468 16.132398 -3.925743 2.300082 2.591262 -7.534007 24.998404 -11.414791 61.806949 -19.123792 38.529930 0.000000 0.000000 0.000000 3.225655 2.007654 -5.782964 -8.687399 -4.888396 1.920065 -3.287271 -0.046594 6.245716 2.198011 -19.060456 8.137027 -5.930637 23.329582 4.298951 0.000000 0.000000 0.000000 
